# xmcd CD database file
#
# Track frame offsets:
#	150
#	19256
#	35617
#	51818
#	73142
#	91821
#	108424
#	131830
#	150243
#	173791
#	193219
#	212845
#	230090
#
# Disc length: 3367 seconds
#
# Revision: 0
# Processed by: cddbd v1.5.1PL0 Copyright (c) Steve Scherf et al.
# Submitted via: CDex 1.51
#
DISCID=b70d250d
DTITLE=RSVP - Music for Dining, Volume I
DYEAR=1900
DGENRE=Jazz
TTITLE0=You Light Up My Life
TTITLE1=What the World Needs Now
TTITLE2=Blue Moon
TTITLE3=Mona Lisa
TTITLE4=Are you Lonesome Tonight?
TTITLE5=Still Crazy After All These Years
TTITLE6=The Look of Love
TTITLE7=Over the Rainbow
TTITLE8=I Only Have Eyes for You
TTITLE9=Sometimes When We Touch
TTITLE10=Smoke Gets in Your Eyes
TTITLE11=Blue Velvet
TTITLE12=You Send Me
EXTD=
EXTT0=
EXTT1=
EXTT2=
EXTT3=
EXTT4=
EXTT5=
EXTT6=
EXTT7=
EXTT8=
EXTT9=
EXTT10=
EXTT11=
EXTT12=
PLAYORDER=
